<?xml version="1.0"?><svg xmlns="http://www.w3.org/2000/svg" width="100" height="100"><rect x="0" y="0" width="100%" height="100%" fill="rgb(108, 92, 231)" /><rect x="-8.3333333333333" y="-8.3333333333333" width="16.666666666667" height="16.666666666667" stroke="#000" stroke-opacity="0.02" fill="#222" fill-opacity="0.063333333333333" stroke-width="1" /><rect x="70.534180126148" y="-8.3333333333333" width="16.666666666667" height="16.666666666667" stroke="#000" stroke-opacity="0.02" fill="#222" fill-opacity="0.063333333333333" stroke-width="1" /><rect x="-8.3333333333333" y="82.735026918963" width="16.666666666667" height="16.666666666667" stroke="#000" stroke-opacity="0.02" fill="#222" fill-opacity="0.063333333333333" stroke-width="1" /><rect x="70.534180126148" y="82.735026918963" width="16.666666666667" height="16.666666666667" stroke="#000" stroke-opacity="0.02" fill="#222" fill-opacity="0.063333333333333" stroke-width="1" /><rect x="31.100423396407" y="14.433756729741" width="16.666666666667" height="16.666666666667" stroke="#000" stroke-opacity="0.02" fill="#222" fill-opacity="0.080666666666667" stroke-width="1" /><rect x="-8.3333333333333" y="37.200846792815" width="16.666666666667" height="16.666666666667" stroke="#000" stroke-opacity="0.02" fill="#ddd" fill-opacity="0.072" stroke-width="1" /><rect x="70.534180126148" y="37.200846792815" width="16.666666666667" height="16.666666666667" stroke="#000" stroke-opacity="0.02" fill="#ddd" fill-opacity="0.072" stroke-width="1" /><rect x="31.100423396407" y="59.967936855889" width="16.666666666667" height="16.666666666667" stroke="#000" stroke-opacity="0.02" fill="#ddd" fill-opacity="0.037333333333333" stroke-width="1" /><polyline points="0, 0, 14.433756729741, 8.3333333333333, 0, 16.666666666667, 0, 0" stroke="#000" stroke-opacity="0.02" fill="#ddd" fill-opacity="0.14133333333333" stroke-width="1" transform="translate(8.3333333333333, -8.3333333333333) rotate(0, 8.3333333333333, 7.2168783648703)" /><polyline points="0, 0, 14.433756729741, 8.3333333333333, 0, 16.666666666667, 0, 0" stroke="#000" stroke-opacity="0.02" fill="#ddd" fill-opacity="0.14133333333333" stroke-width="1" transform="translate(8.3333333333333, 99.401693585629) rotate(0, 8.3333333333333, 7.2168783648703) scale(1, -1)" /><polyline points="0, 0, 14.433756729741, 8.3333333333333, 0, 16.666666666667, 0, 0" stroke="#000" stroke-opacity="0.02" fill="#222" fill-opacity="0.098" stroke-width="1" transform="translate(70.534180126148, -8.3333333333333) rotate(0, 8.3333333333333, 7.2168783648703) scale(-1, 1)" /><polyline points="0, 0, 14.433756729741, 8.3333333333333, 0, 16.666666666667, 0, 0" stroke="#000" stroke-opacity="0.02" fill="#222" fill-opacity="0.098" stroke-width="1" transform="translate(70.534180126148, 99.401693585629) rotate(0, 8.3333333333333, 7.2168783648703) scale(-1, -1)" /><polyline points="0, 0, 14.433756729741, 8.3333333333333, 0, 16.666666666667, 0, 0" stroke="#000" stroke-opacity="0.02" fill="#ddd" fill-opacity="0.124" stroke-width="1" transform="translate(47.767090063074, 14.433756729741)" /><polyline points="0, 0, 14.433756729741, 8.3333333333333, 0, 16.666666666667, 0, 0" stroke="#000" stroke-opacity="0.02" fill="#ddd" fill-opacity="0.089333333333333" stroke-width="1" transform="translate(31.100423396407, 14.433756729741) scale(-1, 1)" /><polyline points="0, 0, 14.433756729741, 8.3333333333333, 0, 16.666666666667, 0, 0" stroke="#000" stroke-opacity="0.02" fill="#222" fill-opacity="0.080666666666667" stroke-width="1" transform="translate(47.767090063074, 76.634603522555) scale(1, -1)" /><polyline points="0, 0, 14.433756729741, 8.3333333333333, 0, 16.666666666667, 0, 0" stroke="#000" stroke-opacity="0.02" fill="#222" fill-opacity="0.13266666666667" stroke-width="1" transform="translate(31.100423396407, 76.634603522555) scale(-1, -1)" /><polyline points="0, 0, 14.433756729741, 8.3333333333333, 0, 16.666666666667, 0, 0" stroke="#000" stroke-opacity="0.02" fill="#222" fill-opacity="0.080666666666667" stroke-width="1" transform="translate(8.3333333333333, 37.200846792815)" /><polyline points="0, 0, 14.433756729741, 8.3333333333333, 0, 16.666666666667, 0, 0" stroke="#000" stroke-opacity="0.02" fill="#222" fill-opacity="0.028666666666667" stroke-width="1" transform="translate(70.534180126148, 37.200846792815) scale(-1, 1)" /><rect x="0" y="0" width="16.666666666667" height="16.666666666667" stroke="#000" stroke-opacity="0.02" fill="#222" fill-opacity="0.098" stroke-width="1" transform="translate(8.3333333333333, 8.3333333333333) rotate(-30, 0, 0)" /><rect x="0" y="0" width="16.666666666667" height="16.666666666667" stroke="#000" stroke-opacity="0.02" fill="#222" fill-opacity="0.098" stroke-width="1" transform="scale(-1, 1) translate(-70.534180126148, 8.3333333333333) rotate(-30, 0, 0)" /><rect x="0" y="0" width="16.666666666667" height="16.666666666667" stroke="#000" stroke-opacity="0.02" fill="#222" fill-opacity="0.098" stroke-width="1" transform="translate(8.3333333333333, 20.534180126148) rotate(30, 0, 16.666666666667)" /><rect x="0" y="0" width="16.666666666667" height="16.666666666667" stroke="#000" stroke-opacity="0.02" fill="#ddd" fill-opacity="0.072" stroke-width="1" transform="scale(-1, 1) translate(-70.534180126148, 20.534180126148) rotate(30, 0, 16.666666666667)" /><rect x="0" y="0" width="16.666666666667" height="16.666666666667" stroke="#000" stroke-opacity="0.02" fill="#ddd" fill-opacity="0.02" stroke-width="1" transform="scale(1, -1) translate(8.3333333333333, -70.534180126148) rotate(30, 0, 16.666666666667)" /><rect x="0" y="0" width="16.666666666667" height="16.666666666667" stroke="#000" stroke-opacity="0.02" fill="#ddd" fill-opacity="0.054666666666667" stroke-width="1" transform="scale(-1, -1) translate(-70.534180126148, -70.534180126148) rotate(30, 0, 16.666666666667)" /><rect x="0" y="0" width="16.666666666667" height="16.666666666667" stroke="#000" stroke-opacity="0.02" fill="#222" fill-opacity="0.13266666666667" stroke-width="1" transform="scale(1, -1) translate(8.3333333333333, -82.735026918963) rotate(-30, 0, 0)" /><rect x="0" y="0" width="16.666666666667" height="16.666666666667" stroke="#000" stroke-opacity="0.02" fill="#ddd" fill-opacity="0.037333333333333" stroke-width="1" transform="scale(-1, -1) translate(-70.534180126148, -82.735026918963) rotate(-30, 0, 0)" /></svg>
