<?xml version="1.0"?><svg xmlns="http://www.w3.org/2000/svg" width="100" height="100"><rect x="0" y="0" width="100%" height="100%" fill="rgb(0, 184, 148)" /><polyline points="35.666666666667, 0, 71.333333333333, 61.77647880329, 0, 61.77647880329, 35.666666666667, 0" fill="#222" fill-opacity="0.13266666666667" stroke="#000" stroke-opacity="0.02" transform="translate(-35.666666666667, 0) rotate(180, 35.666666666667, 30.888239401645)" /><polyline points="35.666666666667, 0, 71.333333333333, 61.77647880329, 0, 61.77647880329, 35.666666666667, 0" fill="#222" fill-opacity="0.13266666666667" stroke="#000" stroke-opacity="0.02" transform="translate(178.33333333333, 0) rotate(180, 35.666666666667, 30.888239401645)" /><polyline points="35.666666666667, 0, 71.333333333333, 61.77647880329, 0, 61.77647880329, 35.666666666667, 0" fill="#222" fill-opacity="0.15" stroke="#000" stroke-opacity="0.02" transform="translate(0, 0) rotate(0, 35.666666666667, 30.888239401645)" /><polyline points="35.666666666667, 0, 71.333333333333, 61.77647880329, 0, 61.77647880329, 35.666666666667, 0" fill="#222" fill-opacity="0.046" stroke="#000" stroke-opacity="0.02" transform="translate(35.666666666667, 0) rotate(180, 35.666666666667, 30.888239401645)" /><polyline points="35.666666666667, 0, 71.333333333333, 61.77647880329, 0, 61.77647880329, 35.666666666667, 0" fill="#ddd" fill-opacity="0.124" stroke="#000" stroke-opacity="0.02" transform="translate(71.333333333333, 0) rotate(0, 35.666666666667, 30.888239401645)" /><polyline points="35.666666666667, 0, 71.333333333333, 61.77647880329, 0, 61.77647880329, 35.666666666667, 0" fill="#ddd" fill-opacity="0.054666666666667" stroke="#000" stroke-opacity="0.02" transform="translate(107, 0) rotate(180, 35.666666666667, 30.888239401645)" /><polyline points="35.666666666667, 0, 71.333333333333, 61.77647880329, 0, 61.77647880329, 35.666666666667, 0" fill="#ddd" fill-opacity="0.124" stroke="#000" stroke-opacity="0.02" transform="translate(142.66666666667, 0) rotate(0, 35.666666666667, 30.888239401645)" /><polyline points="35.666666666667, 0, 71.333333333333, 61.77647880329, 0, 61.77647880329, 35.666666666667, 0" fill="#ddd" fill-opacity="0.089333333333333" stroke="#000" stroke-opacity="0.02" transform="translate(-35.666666666667, 61.77647880329) rotate(0, 35.666666666667, 30.888239401645)" /><polyline points="35.666666666667, 0, 71.333333333333, 61.77647880329, 0, 61.77647880329, 35.666666666667, 0" fill="#ddd" fill-opacity="0.089333333333333" stroke="#000" stroke-opacity="0.02" transform="translate(178.33333333333, 61.77647880329) rotate(0, 35.666666666667, 30.888239401645)" /><polyline points="35.666666666667, 0, 71.333333333333, 61.77647880329, 0, 61.77647880329, 35.666666666667, 0" fill="#ddd" fill-opacity="0.037333333333333" stroke="#000" stroke-opacity="0.02" transform="translate(0, 61.77647880329) rotate(180, 35.666666666667, 30.888239401645)" /><polyline points="35.666666666667, 0, 71.333333333333, 61.77647880329, 0, 61.77647880329, 35.666666666667, 0" fill="#222" fill-opacity="0.080666666666667" stroke="#000" stroke-opacity="0.02" transform="translate(35.666666666667, 61.77647880329) rotate(0, 35.666666666667, 30.888239401645)" /><polyline points="35.666666666667, 0, 71.333333333333, 61.77647880329, 0, 61.77647880329, 35.666666666667, 0" fill="#222" fill-opacity="0.11533333333333" stroke="#000" stroke-opacity="0.02" transform="translate(71.333333333333, 61.77647880329) rotate(180, 35.666666666667, 30.888239401645)" /><polyline points="35.666666666667, 0, 71.333333333333, 61.77647880329, 0, 61.77647880329, 35.666666666667, 0" fill="#222" fill-opacity="0.046" stroke="#000" stroke-opacity="0.02" transform="translate(107, 61.77647880329) rotate(0, 35.666666666667, 30.888239401645)" /><polyline points="35.666666666667, 0, 71.333333333333, 61.77647880329, 0, 61.77647880329, 35.666666666667, 0" fill="#222" fill-opacity="0.15" stroke="#000" stroke-opacity="0.02" transform="translate(142.66666666667, 61.77647880329) rotate(180, 35.666666666667, 30.888239401645)" /><polyline points="35.666666666667, 0, 71.333333333333, 61.77647880329, 0, 61.77647880329, 35.666666666667, 0" fill="#ddd" fill-opacity="0.054666666666667" stroke="#000" stroke-opacity="0.02" transform="translate(-35.666666666667, 123.55295760658) rotate(180, 35.666666666667, 30.888239401645)" /><polyline points="35.666666666667, 0, 71.333333333333, 61.77647880329, 0, 61.77647880329, 35.666666666667, 0" fill="#ddd" fill-opacity="0.054666666666667" stroke="#000" stroke-opacity="0.02" transform="translate(178.33333333333, 123.55295760658) rotate(180, 35.666666666667, 30.888239401645)" /><polyline points="35.666666666667, 0, 71.333333333333, 61.77647880329, 0, 61.77647880329, 35.666666666667, 0" fill="#ddd" fill-opacity="0.089333333333333" stroke="#000" stroke-opacity="0.02" transform="translate(0, 123.55295760658) rotate(0, 35.666666666667, 30.888239401645)" /><polyline points="35.666666666667, 0, 71.333333333333, 61.77647880329, 0, 61.77647880329, 35.666666666667, 0" fill="#222" fill-opacity="0.028666666666667" stroke="#000" stroke-opacity="0.02" transform="translate(35.666666666667, 123.55295760658) rotate(180, 35.666666666667, 30.888239401645)" /><polyline points="35.666666666667, 0, 71.333333333333, 61.77647880329, 0, 61.77647880329, 35.666666666667, 0" fill="#222" fill-opacity="0.028666666666667" stroke="#000" stroke-opacity="0.02" transform="translate(71.333333333333, 123.55295760658) rotate(0, 35.666666666667, 30.888239401645)" /><polyline points="35.666666666667, 0, 71.333333333333, 61.77647880329, 0, 61.77647880329, 35.666666666667, 0" fill="#ddd" fill-opacity="0.124" stroke="#000" stroke-opacity="0.02" transform="translate(107, 123.55295760658) rotate(180, 35.666666666667, 30.888239401645)" /><polyline points="35.666666666667, 0, 71.333333333333, 61.77647880329, 0, 61.77647880329, 35.666666666667, 0" fill="#ddd" fill-opacity="0.054666666666667" stroke="#000" stroke-opacity="0.02" transform="translate(142.66666666667, 123.55295760658) rotate(0, 35.666666666667, 30.888239401645)" /><polyline points="35.666666666667, 0, 71.333333333333, 61.77647880329, 0, 61.77647880329, 35.666666666667, 0" fill="#ddd" fill-opacity="0.072" stroke="#000" stroke-opacity="0.02" transform="translate(-35.666666666667, 185.32943640987) rotate(0, 35.666666666667, 30.888239401645)" /><polyline points="35.666666666667, 0, 71.333333333333, 61.77647880329, 0, 61.77647880329, 35.666666666667, 0" fill="#ddd" fill-opacity="0.072" stroke="#000" stroke-opacity="0.02" transform="translate(178.33333333333, 185.32943640987) rotate(0, 35.666666666667, 30.888239401645)" /><polyline points="35.666666666667, 0, 71.333333333333, 61.77647880329, 0, 61.77647880329, 35.666666666667, 0" fill="#ddd" fill-opacity="0.054666666666667" stroke="#000" stroke-opacity="0.02" transform="translate(0, 185.32943640987) rotate(180, 35.666666666667, 30.888239401645)" /><polyline points="35.666666666667, 0, 71.333333333333, 61.77647880329, 0, 61.77647880329, 35.666666666667, 0" fill="#ddd" fill-opacity="0.089333333333333" stroke="#000" stroke-opacity="0.02" transform="translate(35.666666666667, 185.32943640987) rotate(0, 35.666666666667, 30.888239401645)" /><polyline points="35.666666666667, 0, 71.333333333333, 61.77647880329, 0, 61.77647880329, 35.666666666667, 0" fill="#ddd" fill-opacity="0.072" stroke="#000" stroke-opacity="0.02" transform="translate(71.333333333333, 185.32943640987) rotate(180, 35.666666666667, 30.888239401645)" /><polyline points="35.666666666667, 0, 71.333333333333, 61.77647880329, 0, 61.77647880329, 35.666666666667, 0" fill="#ddd" fill-opacity="0.124" stroke="#000" stroke-opacity="0.02" transform="translate(107, 185.32943640987) rotate(0, 35.666666666667, 30.888239401645)" /><polyline points="35.666666666667, 0, 71.333333333333, 61.77647880329, 0, 61.77647880329, 35.666666666667, 0" fill="#222" fill-opacity="0.080666666666667" stroke="#000" stroke-opacity="0.02" transform="translate(142.66666666667, 185.32943640987) rotate(180, 35.666666666667, 30.888239401645)" /><polyline points="35.666666666667, 0, 71.333333333333, 61.77647880329, 0, 61.77647880329, 35.666666666667, 0" fill="#ddd" fill-opacity="0.02" stroke="#000" stroke-opacity="0.02" transform="translate(-35.666666666667, 247.10591521316) rotate(180, 35.666666666667, 30.888239401645)" /><polyline points="35.666666666667, 0, 71.333333333333, 61.77647880329, 0, 61.77647880329, 35.666666666667, 0" fill="#ddd" fill-opacity="0.02" stroke="#000" stroke-opacity="0.02" transform="translate(178.33333333333, 247.10591521316) rotate(180, 35.666666666667, 30.888239401645)" /><polyline points="35.666666666667, 0, 71.333333333333, 61.77647880329, 0, 61.77647880329, 35.666666666667, 0" fill="#ddd" fill-opacity="0.054666666666667" stroke="#000" stroke-opacity="0.02" transform="translate(0, 247.10591521316) rotate(0, 35.666666666667, 30.888239401645)" /><polyline points="35.666666666667, 0, 71.333333333333, 61.77647880329, 0, 61.77647880329, 35.666666666667, 0" fill="#ddd" fill-opacity="0.10666666666667" stroke="#000" stroke-opacity="0.02" transform="translate(35.666666666667, 247.10591521316) rotate(180, 35.666666666667, 30.888239401645)" /><polyline points="35.666666666667, 0, 71.333333333333, 61.77647880329, 0, 61.77647880329, 35.666666666667, 0" fill="#ddd" fill-opacity="0.072" stroke="#000" stroke-opacity="0.02" transform="translate(71.333333333333, 247.10591521316) rotate(0, 35.666666666667, 30.888239401645)" /><polyline points="35.666666666667, 0, 71.333333333333, 61.77647880329, 0, 61.77647880329, 35.666666666667, 0" fill="#222" fill-opacity="0.13266666666667" stroke="#000" stroke-opacity="0.02" transform="translate(107, 247.10591521316) rotate(180, 35.666666666667, 30.888239401645)" /><polyline points="35.666666666667, 0, 71.333333333333, 61.77647880329, 0, 61.77647880329, 35.666666666667, 0" fill="#ddd" fill-opacity="0.10666666666667" stroke="#000" stroke-opacity="0.02" transform="translate(142.66666666667, 247.10591521316) rotate(0, 35.666666666667, 30.888239401645)" /><polyline points="35.666666666667, 0, 71.333333333333, 61.77647880329, 0, 61.77647880329, 35.666666666667, 0" fill="#ddd" fill-opacity="0.054666666666667" stroke="#000" stroke-opacity="0.02" transform="translate(-35.666666666667, 308.88239401645) rotate(0, 35.666666666667, 30.888239401645)" /><polyline points="35.666666666667, 0, 71.333333333333, 61.77647880329, 0, 61.77647880329, 35.666666666667, 0" fill="#ddd" fill-opacity="0.054666666666667" stroke="#000" stroke-opacity="0.02" transform="translate(178.33333333333, 308.88239401645) rotate(0, 35.666666666667, 30.888239401645)" /><polyline points="35.666666666667, 0, 71.333333333333, 61.77647880329, 0, 61.77647880329, 35.666666666667, 0" fill="#222" fill-opacity="0.080666666666667" stroke="#000" stroke-opacity="0.02" transform="translate(0, 308.88239401645) rotate(180, 35.666666666667, 30.888239401645)" /><polyline points="35.666666666667, 0, 71.333333333333, 61.77647880329, 0, 61.77647880329, 35.666666666667, 0" fill="#222" fill-opacity="0.13266666666667" stroke="#000" stroke-opacity="0.02" transform="translate(35.666666666667, 308.88239401645) rotate(0, 35.666666666667, 30.888239401645)" /><polyline points="35.666666666667, 0, 71.333333333333, 61.77647880329, 0, 61.77647880329, 35.666666666667, 0" fill="#ddd" fill-opacity="0.124" stroke="#000" stroke-opacity="0.02" transform="translate(71.333333333333, 308.88239401645) rotate(180, 35.666666666667, 30.888239401645)" /><polyline points="35.666666666667, 0, 71.333333333333, 61.77647880329, 0, 61.77647880329, 35.666666666667, 0" fill="#ddd" fill-opacity="0.124" stroke="#000" stroke-opacity="0.02" transform="translate(107, 308.88239401645) rotate(0, 35.666666666667, 30.888239401645)" /><polyline points="35.666666666667, 0, 71.333333333333, 61.77647880329, 0, 61.77647880329, 35.666666666667, 0" fill="#ddd" fill-opacity="0.089333333333333" stroke="#000" stroke-opacity="0.02" transform="translate(142.66666666667, 308.88239401645) rotate(180, 35.666666666667, 30.888239401645)" /></svg>
