<?xml version="1.0"?><svg xmlns="http://www.w3.org/2000/svg" width="100" height="100"><rect x="0" y="0" width="100%" height="100%" fill="rgb(162, 155, 254)" /><circle cx="0" cy="0" r="12.5" fill="#ddd" style="opacity:0.02;" /><circle cx="75" cy="0" r="12.5" fill="#ddd" style="opacity:0.02;" /><circle cx="0" cy="75" r="12.5" fill="#ddd" style="opacity:0.02;" /><circle cx="75" cy="75" r="12.5" fill="#ddd" style="opacity:0.02;" /><circle cx="12.5" cy="0" r="12.5" fill="#ddd" style="opacity:0.072;" /><circle cx="12.5" cy="75" r="12.5" fill="#ddd" style="opacity:0.072;" /><circle cx="25" cy="0" r="12.5" fill="#ddd" style="opacity:0.054666666666667;" /><circle cx="25" cy="75" r="12.5" fill="#ddd" style="opacity:0.054666666666667;" /><circle cx="37.5" cy="0" r="12.5" fill="#222" style="opacity:0.028666666666667;" /><circle cx="37.5" cy="75" r="12.5" fill="#222" style="opacity:0.028666666666667;" /><circle cx="50" cy="0" r="12.5" fill="#222" style="opacity:0.080666666666667;" /><circle cx="50" cy="75" r="12.5" fill="#222" style="opacity:0.080666666666667;" /><circle cx="62.5" cy="0" r="12.5" fill="#ddd" style="opacity:0.089333333333333;" /><circle cx="62.5" cy="75" r="12.5" fill="#ddd" style="opacity:0.089333333333333;" /><circle cx="0" cy="12.5" r="12.5" fill="#ddd" style="opacity:0.054666666666667;" /><circle cx="75" cy="12.5" r="12.5" fill="#ddd" style="opacity:0.054666666666667;" /><circle cx="12.5" cy="12.5" r="12.5" fill="#ddd" style="opacity:0.054666666666667;" /><circle cx="25" cy="12.5" r="12.5" fill="#ddd" style="opacity:0.10666666666667;" /><circle cx="37.5" cy="12.5" r="12.5" fill="#ddd" style="opacity:0.14133333333333;" /><circle cx="50" cy="12.5" r="12.5" fill="#ddd" style="opacity:0.10666666666667;" /><circle cx="62.5" cy="12.5" r="12.5" fill="#ddd" style="opacity:0.02;" /><circle cx="0" cy="25" r="12.5" fill="#ddd" style="opacity:0.10666666666667;" /><circle cx="75" cy="25" r="12.5" fill="#ddd" style="opacity:0.10666666666667;" /><circle cx="12.5" cy="25" r="12.5" fill="#ddd" style="opacity:0.10666666666667;" /><circle cx="25" cy="25" r="12.5" fill="#ddd" style="opacity:0.089333333333333;" /><circle cx="37.5" cy="25" r="12.5" fill="#222" style="opacity:0.063333333333333;" /><circle cx="50" cy="25" r="12.5" fill="#222" style="opacity:0.063333333333333;" /><circle cx="62.5" cy="25" r="12.5" fill="#222" style="opacity:0.028666666666667;" /><circle cx="0" cy="37.5" r="12.5" fill="#ddd" style="opacity:0.14133333333333;" /><circle cx="75" cy="37.5" r="12.5" fill="#ddd" style="opacity:0.14133333333333;" /><circle cx="12.5" cy="37.5" r="12.5" fill="#222" style="opacity:0.080666666666667;" /><circle cx="25" cy="37.5" r="12.5" fill="#222" style="opacity:0.028666666666667;" /><circle cx="37.5" cy="37.5" r="12.5" fill="#ddd" style="opacity:0.10666666666667;" /><circle cx="50" cy="37.5" r="12.5" fill="#222" style="opacity:0.098;" /><circle cx="62.5" cy="37.5" r="12.5" fill="#ddd" style="opacity:0.10666666666667;" /><circle cx="0" cy="50" r="12.5" fill="#222" style="opacity:0.098;" /><circle cx="75" cy="50" r="12.5" fill="#222" style="opacity:0.098;" /><circle cx="12.5" cy="50" r="12.5" fill="#ddd" style="opacity:0.14133333333333;" /><circle cx="25" cy="50" r="12.5" fill="#222" style="opacity:0.080666666666667;" /><circle cx="37.5" cy="50" r="12.5" fill="#ddd" style="opacity:0.02;" /><circle cx="50" cy="50" r="12.5" fill="#222" style="opacity:0.028666666666667;" /><circle cx="62.5" cy="50" r="12.5" fill="#ddd" style="opacity:0.089333333333333;" /><circle cx="0" cy="62.5" r="12.5" fill="#ddd" style="opacity:0.124;" /><circle cx="75" cy="62.5" r="12.5" fill="#ddd" style="opacity:0.124;" /><circle cx="12.5" cy="62.5" r="12.5" fill="#222" style="opacity:0.15;" /><circle cx="25" cy="62.5" r="12.5" fill="#ddd" style="opacity:0.02;" /><circle cx="37.5" cy="62.5" r="12.5" fill="#222" style="opacity:0.15;" /><circle cx="50" cy="62.5" r="12.5" fill="#ddd" style="opacity:0.02;" /><circle cx="62.5" cy="62.5" r="12.5" fill="#ddd" style="opacity:0.10666666666667;" /></svg>
