<?xml version="1.0"?><svg xmlns="http://www.w3.org/2000/svg" width="100" height="100"><rect x="0" y="0" width="100%" height="100%" fill="rgb(108, 92, 231)" /><polyline points="16.5,0,33.5,0,50,16.5,50,33.5,33.5,50,16.5,50,0,33.5,0,16.5,16.5,0" fill="#ddd" fill-opacity="0.124" stroke="#000" stroke-opacity="0.02" transform="translate(0, 0)" /><polyline points="16.5,0,33.5,0,50,16.5,50,33.5,33.5,50,16.5,50,0,33.5,0,16.5,16.5,0" fill="#222" fill-opacity="0.046" stroke="#000" stroke-opacity="0.02" transform="translate(50, 0)" /><polyline points="16.5,0,33.5,0,50,16.5,50,33.5,33.5,50,16.5,50,0,33.5,0,16.5,16.5,0" fill="#222" fill-opacity="0.028666666666667" stroke="#000" stroke-opacity="0.02" transform="translate(100, 0)" /><polyline points="16.5,0,33.5,0,50,16.5,50,33.5,33.5,50,16.5,50,0,33.5,0,16.5,16.5,0" fill="#222" fill-opacity="0.080666666666667" stroke="#000" stroke-opacity="0.02" transform="translate(150, 0)" /><polyline points="16.5,0,33.5,0,50,16.5,50,33.5,33.5,50,16.5,50,0,33.5,0,16.5,16.5,0" fill="#222" fill-opacity="0.098" stroke="#000" stroke-opacity="0.02" transform="translate(200, 0)" /><polyline points="16.5,0,33.5,0,50,16.5,50,33.5,33.5,50,16.5,50,0,33.5,0,16.5,16.5,0" fill="#222" fill-opacity="0.028666666666667" stroke="#000" stroke-opacity="0.02" transform="translate(250, 0)" /><polyline points="16.5,0,33.5,0,50,16.5,50,33.5,33.5,50,16.5,50,0,33.5,0,16.5,16.5,0" fill="#ddd" fill-opacity="0.124" stroke="#000" stroke-opacity="0.02" transform="translate(0, 50)" /><polyline points="16.5,0,33.5,0,50,16.5,50,33.5,33.5,50,16.5,50,0,33.5,0,16.5,16.5,0" fill="#ddd" fill-opacity="0.02" stroke="#000" stroke-opacity="0.02" transform="translate(50, 50)" /><polyline points="16.5,0,33.5,0,50,16.5,50,33.5,33.5,50,16.5,50,0,33.5,0,16.5,16.5,0" fill="#ddd" fill-opacity="0.14133333333333" stroke="#000" stroke-opacity="0.02" transform="translate(100, 50)" /><polyline points="16.5,0,33.5,0,50,16.5,50,33.5,33.5,50,16.5,50,0,33.5,0,16.5,16.5,0" fill="#222" fill-opacity="0.098" stroke="#000" stroke-opacity="0.02" transform="translate(150, 50)" /><polyline points="16.5,0,33.5,0,50,16.5,50,33.5,33.5,50,16.5,50,0,33.5,0,16.5,16.5,0" fill="#ddd" fill-opacity="0.072" stroke="#000" stroke-opacity="0.02" transform="translate(200, 50)" /><polyline points="16.5,0,33.5,0,50,16.5,50,33.5,33.5,50,16.5,50,0,33.5,0,16.5,16.5,0" fill="#222" fill-opacity="0.15" stroke="#000" stroke-opacity="0.02" transform="translate(250, 50)" /><polyline points="16.5,0,33.5,0,50,16.5,50,33.5,33.5,50,16.5,50,0,33.5,0,16.5,16.5,0" fill="#222" fill-opacity="0.028666666666667" stroke="#000" stroke-opacity="0.02" transform="translate(0, 100)" /><polyline points="16.5,0,33.5,0,50,16.5,50,33.5,33.5,50,16.5,50,0,33.5,0,16.5,16.5,0" fill="#222" fill-opacity="0.13266666666667" stroke="#000" stroke-opacity="0.02" transform="translate(50, 100)" /><polyline points="16.5,0,33.5,0,50,16.5,50,33.5,33.5,50,16.5,50,0,33.5,0,16.5,16.5,0" fill="#222" fill-opacity="0.063333333333333" stroke="#000" stroke-opacity="0.02" transform="translate(100, 100)" /><polyline points="16.5,0,33.5,0,50,16.5,50,33.5,33.5,50,16.5,50,0,33.5,0,16.5,16.5,0" fill="#ddd" fill-opacity="0.02" stroke="#000" stroke-opacity="0.02" transform="translate(150, 100)" /><polyline points="16.5,0,33.5,0,50,16.5,50,33.5,33.5,50,16.5,50,0,33.5,0,16.5,16.5,0" fill="#222" fill-opacity="0.080666666666667" stroke="#000" stroke-opacity="0.02" transform="translate(200, 100)" /><polyline points="16.5,0,33.5,0,50,16.5,50,33.5,33.5,50,16.5,50,0,33.5,0,16.5,16.5,0" fill="#ddd" fill-opacity="0.14133333333333" stroke="#000" stroke-opacity="0.02" transform="translate(250, 100)" /><polyline points="16.5,0,33.5,0,50,16.5,50,33.5,33.5,50,16.5,50,0,33.5,0,16.5,16.5,0" fill="#222" fill-opacity="0.080666666666667" stroke="#000" stroke-opacity="0.02" transform="translate(0, 150)" /><polyline points="16.5,0,33.5,0,50,16.5,50,33.5,33.5,50,16.5,50,0,33.5,0,16.5,16.5,0" fill="#ddd" fill-opacity="0.124" stroke="#000" stroke-opacity="0.02" transform="translate(50, 150)" /><polyline points="16.5,0,33.5,0,50,16.5,50,33.5,33.5,50,16.5,50,0,33.5,0,16.5,16.5,0" fill="#ddd" fill-opacity="0.02" stroke="#000" stroke-opacity="0.02" transform="translate(100, 150)" /><polyline points="16.5,0,33.5,0,50,16.5,50,33.5,33.5,50,16.5,50,0,33.5,0,16.5,16.5,0" fill="#ddd" fill-opacity="0.124" stroke="#000" stroke-opacity="0.02" transform="translate(150, 150)" /><polyline points="16.5,0,33.5,0,50,16.5,50,33.5,33.5,50,16.5,50,0,33.5,0,16.5,16.5,0" fill="#ddd" fill-opacity="0.124" stroke="#000" stroke-opacity="0.02" transform="translate(200, 150)" /><polyline points="16.5,0,33.5,0,50,16.5,50,33.5,33.5,50,16.5,50,0,33.5,0,16.5,16.5,0" fill="#222" fill-opacity="0.098" stroke="#000" stroke-opacity="0.02" transform="translate(250, 150)" /><polyline points="16.5,0,33.5,0,50,16.5,50,33.5,33.5,50,16.5,50,0,33.5,0,16.5,16.5,0" fill="#222" fill-opacity="0.046" stroke="#000" stroke-opacity="0.02" transform="translate(0, 200)" /><polyline points="16.5,0,33.5,0,50,16.5,50,33.5,33.5,50,16.5,50,0,33.5,0,16.5,16.5,0" fill="#ddd" fill-opacity="0.14133333333333" stroke="#000" stroke-opacity="0.02" transform="translate(50, 200)" /><polyline points="16.5,0,33.5,0,50,16.5,50,33.5,33.5,50,16.5,50,0,33.5,0,16.5,16.5,0" fill="#ddd" fill-opacity="0.037333333333333" stroke="#000" stroke-opacity="0.02" transform="translate(100, 200)" /><polyline points="16.5,0,33.5,0,50,16.5,50,33.5,33.5,50,16.5,50,0,33.5,0,16.5,16.5,0" fill="#ddd" fill-opacity="0.02" stroke="#000" stroke-opacity="0.02" transform="translate(150, 200)" /><polyline points="16.5,0,33.5,0,50,16.5,50,33.5,33.5,50,16.5,50,0,33.5,0,16.5,16.5,0" fill="#ddd" fill-opacity="0.124" stroke="#000" stroke-opacity="0.02" transform="translate(200, 200)" /><polyline points="16.5,0,33.5,0,50,16.5,50,33.5,33.5,50,16.5,50,0,33.5,0,16.5,16.5,0" fill="#ddd" fill-opacity="0.089333333333333" stroke="#000" stroke-opacity="0.02" transform="translate(250, 200)" /><polyline points="16.5,0,33.5,0,50,16.5,50,33.5,33.5,50,16.5,50,0,33.5,0,16.5,16.5,0" fill="#ddd" fill-opacity="0.089333333333333" stroke="#000" stroke-opacity="0.02" transform="translate(0, 250)" /><polyline points="16.5,0,33.5,0,50,16.5,50,33.5,33.5,50,16.5,50,0,33.5,0,16.5,16.5,0" fill="#ddd" fill-opacity="0.089333333333333" stroke="#000" stroke-opacity="0.02" transform="translate(50, 250)" /><polyline points="16.5,0,33.5,0,50,16.5,50,33.5,33.5,50,16.5,50,0,33.5,0,16.5,16.5,0" fill="#ddd" fill-opacity="0.054666666666667" stroke="#000" stroke-opacity="0.02" transform="translate(100, 250)" /><polyline points="16.5,0,33.5,0,50,16.5,50,33.5,33.5,50,16.5,50,0,33.5,0,16.5,16.5,0" fill="#222" fill-opacity="0.080666666666667" stroke="#000" stroke-opacity="0.02" transform="translate(150, 250)" /><polyline points="16.5,0,33.5,0,50,16.5,50,33.5,33.5,50,16.5,50,0,33.5,0,16.5,16.5,0" fill="#ddd" fill-opacity="0.072" stroke="#000" stroke-opacity="0.02" transform="translate(200, 250)" /><polyline points="16.5,0,33.5,0,50,16.5,50,33.5,33.5,50,16.5,50,0,33.5,0,16.5,16.5,0" fill="#ddd" fill-opacity="0.124" stroke="#000" stroke-opacity="0.02" transform="translate(250, 250)" /></svg>
